<svg width="1024" height="1024" viewBox="0 0 1024 1024" fill="none" xmlns="http://www.w3.org/2000/svg">
  <g transform="translate(512 512) scale(1.944) translate(-137.3555 -137.9735)">
    <g filter="url(#filter0_dd_11_30)">
      <path d="M150 255.947L237.646 8H260.711L173.065 255.947H150Z" fill="url(#paint0_linear_11_30)"/>
      <path d="M14 231.511V35.4597H36.4882L36.7765 59.9661C41.3895 50.9324 47.7323 44.013 55.805 39.2078C64.07 34.4026 73.392 32 83.7712 32C98.9555 32 111.353 35.748 120.963 43.2441C130.766 50.7402 137.974 60.5428 142.587 72.6518C147.2 84.7609 149.506 97.8309 149.506 111.862C149.506 125.893 147.2 138.963 142.587 151.072C137.974 163.181 130.766 172.984 120.963 180.48C111.353 187.976 98.9555 191.724 83.7712 191.724C73.7764 191.724 64.6466 189.61 56.3817 185.381C48.309 181.153 42.2544 175.387 38.2181 168.083V231.511H14ZM81.4647 168.659C94.727 168.659 105.106 163.662 112.602 153.667C120.291 143.672 124.135 129.737 124.135 111.862C124.135 93.9868 120.291 80.0518 112.602 70.057C105.106 60.0622 94.727 55.0649 81.4647 55.0649C68.2024 55.0649 57.631 59.87 49.7505 69.4804C42.0622 78.8985 38.2181 93.0258 38.2181 111.862C38.2181 130.506 42.0622 144.633 49.7505 154.244C57.4388 163.854 68.0102 168.659 81.4647 168.659Z" fill="url(#paint1_linear_11_30)"/>
    </g>
  </g>
  <defs>
    <filter id="filter0_dd_11_30" x="-14" y="-14" width="302.711" height="303.947" filterUnits="userSpaceOnUse" color-interpolation-filters="sRGB">
      <feFlood flood-opacity="0" result="BackgroundImageFix"/>
      <feColorMatrix in="SourceAlpha" type="matrix" values="0 0 0 0 0 0 0 0 0 0 0 0 0 0 0 0 0 0 127 0" result="hardAlpha"/>
      <feOffset dy="2"/>
      <feGaussianBlur stdDeviation="1.5"/>
      <feColorMatrix type="matrix" values="0 0 0 0 0 0 0 0 0 0 0 0 0 0 0 0 0 0 0.3 0"/>
      <feBlend mode="normal" in2="BackgroundImageFix" result="effect1_dropShadow_11_30"/>
      <feColorMatrix in="SourceAlpha" type="matrix" values="0 0 0 0 0 0 0 0 0 0 0 0 0 0 0 0 0 0 127 0" result="hardAlpha"/>
      <feMorphology radius="4" operator="dilate" in="SourceAlpha" result="effect2_dropShadow_11_30"/>
      <feOffset dy="6"/>
      <feGaussianBlur stdDeviation="5"/>
      <feColorMatrix type="matrix" values="0 0 0 0 0 0 0 0 0 0 0 0 0 0 0 0 0 0 0.15 0"/>
      <feBlend mode="normal" in2="effect1_dropShadow_11_30" result="effect2_dropShadow_11_30"/>
      <feBlend mode="normal" in="SourceGraphic" in2="effect2_dropShadow_11_30" result="shape"/>
    </filter>
    <linearGradient id="paint0_linear_11_30" x1="205.356" y1="8" x2="205.356" y2="255.947" gradientUnits="userSpaceOnUse">
      <stop offset="0.403846" stop-color="#C1C1C1"/>
      <stop offset="1" stop-color="#2B2B2B"/>
    </linearGradient>
    <linearGradient id="paint1_linear_11_30" x1="81.753" y1="32" x2="81.753" y2="231.511" gradientUnits="userSpaceOnUse">
      <stop offset="0.403846" stop-color="white"/>
      <stop offset="1" stop-color="#8F8F8F"/>
    </linearGradient>
  </defs>
</svg>
