<svg width="1024" height="1024" viewBox="0 0 1024 1024" fill="none" xmlns="http://www.w3.org/2000/svg">
  <path d="M285 770V254H362V319C388 270 434 246 500 246C563 246 614 269 653 315C692 361 711 423 711 512C711 601 692 663 653 709C614 755 563 778 500 778C438 778 392 757 362 716V770H285ZM492 707C535 707 569 691 594 658C620 624 633 575 633 512C633 449 620 400 594 366C569 332 535 315 492 315C449 315 415 331 390 363C365 395 352 445 352 512C352 579 365 629 390 661C415 692 449 707 492 707Z" fill="url(#paint0_linear)"/>
  <path d="M575 812L760 212H828L643 812H575Z" fill="url(#paint1_linear)"/>
  <defs>
    <linearGradient id="paint0_linear" x1="498" y1="246" x2="498" y2="778" gradientUnits="userSpaceOnUse">
      <stop offset="0.22" stop-color="white"/>
      <stop offset="1" stop-color="#A8A8A8"/>
    </linearGradient>
    <linearGradient id="paint1_linear" x1="701.5" y1="212" x2="701.5" y2="812" gradientUnits="userSpaceOnUse">
      <stop offset="0.18" stop-color="white"/>
      <stop offset="1" stop-color="#A8A8A8"/>
    </linearGradient>
  </defs>
</svg>
