<svg width="715" height="237" viewBox="0 0 715 237" fill="none" xmlns="http://www.w3.org/2000/svg">
<g filter="url(#shadow)">
<path d="M611.643 207.52L682.171 8H700.731L630.203 207.52H611.643Z" fill="url(#word)"/>
<path d="M556.053 182C532.389 182 520.557 170.709 520.557 148.128V76.208H479.957V59.04H520.557V30.272H540.045V59.04H588.997V76.208H540.045V148.128C540.045 159.264 545.381 164.832 556.053 164.832H588.997V182H556.053Z" fill="url(#word)"/>
<path d="M422.976 184.784C411.531 184.784 401.555 182.155 393.048 176.896C384.541 171.637 377.968 164.213 373.328 154.624C368.688 144.88 366.368 133.512 366.368 120.52C366.368 107.528 368.688 96.2373 373.328 86.648C377.968 77.0587 384.541 69.6347 393.048 64.376C401.555 58.9626 411.531 56.256 422.976 56.256C436.741 56.256 448.109 59.968 457.08 67.392C466.205 74.6613 472.005 85.1786 474.48 98.944L454.064 100.336C452.208 92.1387 448.496 85.8746 442.928 81.544C437.515 77.0587 430.864 74.816 422.976 74.816C411.685 74.816 402.792 78.9146 396.296 87.112C389.955 95.1546 386.784 106.291 386.784 120.52C386.784 134.749 389.955 145.963 396.296 154.16C402.792 162.203 411.685 166.224 422.976 166.224C430.864 166.224 437.669 163.904 443.392 159.264C449.269 154.624 453.136 147.664 454.992 138.384L475.408 139.776C472.933 153.387 466.979 164.291 457.544 172.488C448.264 180.685 436.741 184.784 422.976 184.784Z" fill="url(#word)"/>
<path d="M257.419 216.8V199.632H296.395C302.427 199.632 306.912 198.317 309.851 195.688C312.944 193.059 314.491 188.032 314.491 180.608V76.208H259.739V59.04H333.979V182C333.979 193.291 331.195 201.875 325.627 207.752C320.059 213.784 311.088 216.8 298.715 216.8H257.419ZM313.331 39.784V17.048H333.747V39.784H313.331Z" fill="url(#word)"/>
<path d="M134.549 182V164.832H166.565V76.208H134.549V59.04H182.805L184.197 82.936C188.064 67.0053 197.885 59.04 213.661 59.04H238.949V76.672H213.893C204.923 76.672 198.04 79.3786 193.245 84.792C188.451 90.0506 186.053 97.7066 186.053 107.76V164.832H225.029V182H134.549Z" fill="url(#word)"/>
<path d="M14 216.8V59.04H32.096L32.328 78.76C36.04 71.4906 41.144 65.9227 47.64 62.056C54.2907 58.1893 61.792 56.256 70.144 56.256C82.3627 56.256 92.3387 59.272 100.072 65.304C107.96 71.336 113.76 79.224 117.472 88.968C121.184 98.712 123.04 109.229 123.04 120.52C123.04 131.811 121.184 142.328 117.472 152.072C113.76 161.816 107.96 169.704 100.072 175.736C92.3387 181.768 82.3627 184.784 70.144 184.784C62.1013 184.784 54.7547 183.083 48.104 179.68C41.608 176.277 36.736 171.637 33.488 165.76V216.8H14ZM68.288 166.224C78.96 166.224 87.312 162.203 93.344 154.16C99.5307 146.117 102.624 134.904 102.624 120.52C102.624 106.136 99.5307 94.9227 93.344 86.88C87.312 78.8373 78.96 74.816 68.288 74.816C57.616 74.816 49.1093 78.6826 42.768 86.416C36.5813 93.9946 33.488 105.363 33.488 120.52C33.488 135.523 36.5813 146.891 42.768 154.624C48.9547 162.357 57.4613 166.224 68.288 166.224Z" fill="url(#word)"/>
</g>
<defs>
<filter id="shadow" x="0" y="0" width="714.731" height="236.8" filterUnits="userSpaceOnUse" color-interpolation-filters="sRGB">
<feDropShadow dx="0" dy="1" stdDeviation="1" flood-color="#FFFFFF" flood-opacity="0.30"/>
<feDropShadow dx="0" dy="5" stdDeviation="5" flood-color="#000000" flood-opacity="0.08"/>
</filter>
<linearGradient id="word" x1="357.365" y1="8" x2="357.365" y2="216.8" gradientUnits="userSpaceOnUse">
<stop offset="0.35" stop-color="#202020"/>
<stop offset="1" stop-color="#626262"/>
</linearGradient>
</defs>
</svg>
